# xmcd CD database file
#
# Track frame offsets:
#	150
#	22472
#	38697
#	57264
#
# Disc length: 1062 seconds
#
# Revision: 6
# Processed by: cddbd v1.5.1PL0 Copyright (c) Steve Scherf et al.
# Submitted via: CDex 1.51
#
DISCID=31042404
DTITLE=KEY GOT CREW - いつもここColor
DYEAR=2005
DGENRE=JPop
TTITLE0=いつもここColor
TTITLE1=One cours ADVENTURE
TTITLE2=コモレビ’05
TTITLE3=April Songs’05
EXTD=YEAR: 2005
EXTT0=
EXTT1=
EXTT2=
EXTT3=
PLAYORDER=
